<svg viewBox="0 0 100 100" fill="none" xmlns="http://www.w3.org/2000/svg">
  <!-- Outer sunrays (hand-drawn brush stroke style) -->
  <g stroke="#F59E0B" stroke-linecap="round">
    <line x1="50" y1="8" x2="50" y2="19" stroke-width="5.5"></line>
    <line x1="50" y1="81" x2="50" y2="92" stroke-width="5.5"></line>
    <line x1="8" y1="50" x2="19" y2="50" stroke-width="5.5"></line>
    <line x1="81" y1="50" x2="92" y2="50" stroke-width="5.5"></line>
    <!-- Diagonal rays -->
    <line x1="21.7" y1="21.7" x2="29.4" y2="29.4" stroke-width="5"></line>
    <line x1="70.6" y1="70.6" x2="78.3" y2="78.3" stroke-width="5"></line>
    <line x1="78.3" y1="21.7" x2="70.6" y2="29.4" stroke-width="5"></line>
    <line x1="29.4" y1="70.6" x2="21.7" y2="78.3" stroke-width="5"></line>
    <!-- Short diagonals between -->
    <line x1="13.4" y1="35.7" x2="20.2" y2="39.6" stroke-width="4.5"></line>
    <line x1="79.8" y1="60.4" x2="86.6" y2="64.3" stroke-width="4.5"></line>
    <line x1="35.7" y1="13.4" x2="39.6" y2="20.2" stroke-width="4.5"></line>
    <line x1="60.4" y1="79.8" x2="64.3" y2="86.6" stroke-width="4.5"></line>
    <line x1="64.3" y1="13.4" x2="60.4" y2="20.2" stroke-width="4.5"></line>
    <line x1="39.6" y1="79.8" x2="35.7" y2="86.6" stroke-width="4.5"></line>
    <line x1="86.6" y1="35.7" x2="79.8" y2="39.6" stroke-width="4.5"></line>
    <line x1="20.2" y1="60.4" x2="13.4" y2="64.3" stroke-width="4.5"></line>
  </g>
  <!-- Concentric circles -->
  <circle cx="50" cy="50" r="22" stroke="#F59E0B" stroke-width="3.5" fill="none"></circle>
  <circle cx="50" cy="50" r="15" stroke="#F59E0B" stroke-width="2.5" fill="none"></circle>
  <circle cx="50" cy="50" r="9" stroke="#F59E0B" stroke-width="2" fill="none"></circle>
  <circle cx="50" cy="50" r="4" fill="#F59E0B"></circle>
</svg>